<?xml version="1.0" encoding="UTF-8" standalone="no"?>
<svg width="20px" height="20px" viewBox="0 0 20 20" version="1.1" xmlns="http://www.w3.org/2000/svg" xmlns:xlink="http://www.w3.org/1999/xlink">
    <!-- Generator: Sketch 43.2 (39069) - http://www.bohemiancoding.com/sketch -->
    <title>icon/warning</title>
    <desc>Created with Sketch.</desc>
    <defs>
        <rect id="path-1" x="0" y="0" width="20" height="20" rx="10"></rect>
    </defs>
    <g id="•-Style-guide" stroke="none" stroke-width="1" fill="none" fill-rule="evenodd">
        <g id="0.0---Components-or-Style-Guide-@320" transform="translate(-145.000000, -7765.000000)">
            <g id="icon/warning" transform="translate(145.000000, 7765.000000)">
                <g>
                    <mask id="mask-2" fill="white">
                        <use xlink:href="#path-1"></use>
                    </mask>
                    <g id="Rectangle"></g>
                    <g id="fill/red" mask="url(#mask-2)" fill="#E30214">
                        <rect id="primary" x="0" y="0" width="20" height="20"></rect>
                    </g>
                    <path d="M9.04408607,5.55682126 L8.97156455,3 L11.1182015,3 L11.0456799,5.55682126 L10.7410896,11.4394326 L9.34867644,11.4394326 L9.04408607,5.55682126 Z M8.754,14.6656041 C8.754,14.2788207 8.87728535,13.9573119 9.12385974,13.7010679 C9.37043413,13.4448239 9.67743882,13.3167039 10.044883,13.3167039 C10.4123272,13.3167039 10.7193319,13.4448239 10.9659063,13.7010679 C11.2124807,13.9573119 11.335766,14.2788207 11.335766,14.6656041 C11.335766,15.0427179 11.2124807,15.359392 10.9659063,15.615636 C10.7193319,15.8718799 10.4123272,16 10.044883,16 C9.67743882,16 9.37043413,15.8718799 9.12385974,15.615636 C8.87728535,15.359392 8.754,15.0427179 8.754,14.6656041 Z" id="!" fill="#FFFFFF" mask="url(#mask-2)"></path>
                </g>
            </g>
        </g>
    </g>
</svg>